<svg id="visual" viewBox="0 0 900 600" width="900" height="600" xmlns="http://www.w3.org/2000/svg" xmlns:xlink="http://www.w3.org/1999/xlink" version="1.1"><path d="M513 0L492.5 14.3C472 28.7 431 57.3 415.8 85.8C400.7 114.3 411.3 142.7 420.5 171.2C429.7 199.7 437.3 228.3 453.5 257C469.7 285.7 494.3 314.3 510.3 343C526.3 371.7 533.7 400.3 535.8 428.8C538 457.3 535 485.7 534.5 514.2C534 542.7 536 571.3 537 585.7L538 600L0 600L0 585.7C0 571.3 0 542.7 0 514.2C0 485.7 0 457.3 0 428.8C0 400.3 0 371.7 0 343C0 314.3 0 285.7 0 257C0 228.3 0 199.7 0 171.2C0 142.7 0 114.3 0 85.8C0 57.3 0 28.7 0 14.3L0 0Z" fill="#ffffff" stroke-linecap="round" stroke-linejoin="miter"></path></svg>